<?xml version="1.0" encoding="UTF-8"?>
<svg id="Lager_2" data-name="Lager 2" xmlns="http://www.w3.org/2000/svg" viewBox="0 0 343.3 454.55" width="343.3" height="458.05">
  <defs>
    <style>
      .cls-1 {
        fill: #684526;
      }

      .cls-2 {
        fill: #231204;
      }

      .cls-3 {
        fill: #a47e55;
        stroke: #684526;
        stroke-miterlimit: 10;
        stroke-width: 7px;
      }
    </style>
  </defs>
  <g id="Lager_1-2" data-name="Lager 1">
    <path class="cls-2" d="m343.3,168.54v286.01H1.96V168.54c0-41.42,15.13-79.35,40.22-108.69,1.68-1.96,3.39-3.87,5.16-5.74,15.6-16.65,34.56-30.19,55.82-39.55,1.7-.75,3.42-1.48,5.16-2.18C128.16,4.4,149.88,0,172.63,0s42.47,4,61.56,11.3c1.73.65,3.44,1.34,5.16,2.06,21.32,8.95,40.41,22.06,56.23,38.29,1.76,1.8,3.49,3.65,5.16,5.52,26.49,29.7,42.56,68.68,42.56,111.37Z"/>
    <path class="cls-3" d="m288.23,161.51v252.91L3.5,450.45V169.61c0-40.67,12.93-77.92,34.37-106.73,1.44-1.92,2.9-3.8,4.41-5.64,13.33-16.35,29.53-29.64,47.7-38.84,1.45-.74,2.93-1.45,4.41-2.14,16.96-7.83,35.53-12.15,54.97-12.15s36.29,3.93,52.61,11.1c1.48.64,2.94,1.32,4.41,2.02,18.22,8.79,34.54,21.66,48.06,37.6,1.51,1.77,2.98,3.58,4.41,5.42,22.64,29.16,29.39,59.34,29.39,101.26Z"/>
    <path class="cls-1" d="m47.5,56.34v387.2l-5,.56V61.98c1.63-1.92,3.29-3.8,5-5.64Z"/>
    <path class="cls-1" d="m106.63,12.36v421.58l-5,.56V14.5c1.65-.74,3.32-1.45,5-2.14Z"/>
    <polygon class="cls-1" points="150.04 432.55 150.04 5.82 155.04 5.82 155.04 431.99 150.04 432.55"/>
    <path class="cls-1" d="m262.58,58.5l.21,361.14-5.21-3.8V53.08c1.71,1.77,3.38,3.58,5,5.42Z"/>
    <ellipse class="cls-1" cx="257.58" cy="243.47" rx="20.87" ry="24.29"/>
    <path class="cls-1" d="m210.79,14.93v408.5s5-.56,5-.56V21.21c-1.63-2.14-3.29-4.23-5-6.28Z"/>
  </g>
</svg>
