<?xml version="1.0" encoding="UTF-8"?>
<svg id="Lager_2" data-name="Lager 2" xmlns="http://www.w3.org/2000/svg" viewBox="0 0 275.12 263.52" width="275.12" height="250.83">
  <defs>
    <style>
      .cls-1 {
        fill: #ff87b5;
      }

      .cls-2 {
        fill: #ffc200;
      }

      .cls-3 {
        fill: #007533;
      }

      .cls-4 {
        fill: #fff;
        stroke: #fff;
        stroke-miterlimit: 10;
      }
    </style>
  </defs>
  <g id="eyes">
    <ellipse class="cls-3" cx="137.56" cy="149.38" rx="137.56" ry="114.15"/>
    <path class="cls-2" d="m129.79,92.59c0,2.91-.29,5.75-.85,8.49-3.93,19.53-21.2,34.24-41.89,34.24s-37.95-14.71-41.88-34.24c-.56-2.74-.85-5.58-.85-8.49,0-23.6,19.13-42.73,42.73-42.73s42.74,19.13,42.74,42.73Z"/>
    <path class="cls-4" d="m128.94,101.08c-3.93,19.53-21.2,34.24-41.89,34.24s-37.95-14.71-41.88-34.24c3.93-19.54,21.18-34.25,41.88-34.25s37.96,14.71,41.89,34.25Z"/>
    <circle cx="110.06" cy="99.9" r="14.34"/>
    <path class="cls-2" d="m236.16,92.59c0,2.91-.29,5.75-.85,8.49-3.93,19.53-21.2,34.24-41.89,34.24s-37.95-14.71-41.88-34.24c-.56-2.74-.85-5.58-.85-8.49,0-23.6,19.13-42.73,42.73-42.73s42.74,19.13,42.74,42.73Z"/>
    <path class="cls-4" d="m235.31,101.08c-3.93,19.53-21.2,34.24-41.89,34.24s-37.95-14.71-41.88-34.24c3.93-19.54,21.18-34.25,41.88-34.25s37.96,14.71,41.89,34.25Z"/>
    <circle cx="216.42" cy="101.07" r="14.34"/>
    <path class="cls-1" d="m105.35,174.13c0-4.72,3.46-9.01,9.13-12.24,6.38,3.63,15.56,5.9,25.75,5.9s19.38-2.27,25.75-5.9c5.67,3.23,9.13,7.52,9.13,12.24,0,10.02-15.62,18.13-34.89,18.13s-34.89-8.12-34.89-18.13Z"/>
    <path d="m119.84,45.48c0,2.06-.19,4.08-.56,6.04-2.83-15.22-16.19-26.74-32.22-26.74s-29.39,11.52-32.22,26.74c-.37-1.96-.56-3.98-.56-6.04,0-18.1,14.68-32.78,32.78-32.78s32.78,14.68,32.78,32.78Z"/>
    <path d="m220.75,22.4c.65,1.96,1.11,3.93,1.39,5.91-7.51-13.54-23.82-20.23-39.04-15.15-15.21,5.08-24.23,20.24-22.09,35.57-.97-1.74-1.79-3.6-2.44-5.56-5.73-17.17,3.54-35.74,20.71-41.47s35.74,3.54,41.48,20.7Z"/>
  </g>
</svg>
