<?xml version="1.0" encoding="utf-8"?>
<!-- Generator: Adobe Illustrator 27.1.1, SVG Export Plug-In . SVG Version: 6.00 Build 0) -->
<svg version="1.1" xmlns="http://www.w3.org/2000/svg" xmlns:xlink="http://www.w3.org/1999/xlink" x="0px" y="0px" width="2000" height="1080" viewBox="0 0 2000 1080" style="enable-background:new 0 0 2000 1080;" xml:space="preserve">
	<style type="text/css">
		.st0{display:none;}
		.st1{display:inline;fill:#A83563;}
		.st2{display:inline;fill:#FFA7C9;}
		.st3{display:inline;fill:#400F54;}
		.st4{display:inline;fill:url(#SVGID_1_);}
		.st5{fill:#FFA7C9;}
	</style>
	<g id="palette" class="st0">
		<rect x="954" y="-373" class="st1" width="82.5" height="82.5" />
		<rect x="1041.25" y="-373" class="st2" width="82.5" height="82.5" />
		<rect x="1128.5" y="-377.25" class="st3" width="82.5" height="82.5" />
	</g>
	<g id="_x31_" class="st0">
		<linearGradient id="SVGID_1_" gradientUnits="userSpaceOnUse" x1="1000" y1="1080" x2="1000" y2="-9.094947e-13">
			<stop offset="5.327789e-09" style="stop-color:#400F54" />
			<stop offset="1" style="stop-color:#FFA7C9" />
		</linearGradient>
		<rect class="st4" width="2000" height="1080" />
	</g>
	<g id="_x32_">
		<polygon class="st5" points="1920.9,611.03 1920.9,486.27 1843.81,486.27 1843.81,314.49 1779.91,314.49 1779.91,713.51
		1642.01,713.51 1642.01,289.79 1485.63,289.79 1485.63,585.62 1453.4,585.62 1453.4,862.56 1375.47,862.56 1375.47,551.67
		1240.55,551.67 1240.55,407.78 1078.8,407.78 1078.8,585.62 957.4,585.62 957.4,460.85 880.32,460.85 880.32,289.07 825.59,289.07
		825.59,232.84 669.2,232.84 669.2,528.67 636.98,528.67 636.98,862.56 559.05,862.56 559.05,494.72 424.13,494.72 424.13,350.83
		262.37,350.83 262.37,528.67 140.98,528.67 140.98,403.9 63.9,403.9 63.9,232.12 0,232.12 0,862.56 0,1027.59 0,1080 816.42,1080
		880.32,1080 933.6,1080 1095.36,1080 1453.4,1080 1473.15,1080 1485.63,1080 1600.94,1080 1642.01,1080 1779.91,1080 1843.81,1080
		1883.2,1080 1897.1,1080 1920.9,1080 2000,1080 2000,862.56 2000,611.03 	" />
	</g>
	<g id="_x33_" class="st0">
		<rect y="540" class="st3" width="177.59" height="550.38" />
		<rect x="177.59" y="658.85" class="st3" width="214.24" height="421.15" />
		<rect x="729.22" y="622.13" class="st3" width="449.56" height="358.31" />
		<rect x="325.68" y="745.18" class="st3" width="449.56" height="358.31" />
		<rect x="1104.22" y="721.69" class="st3" width="449.56" height="358.31" />
		<rect x="1859.93" y="540.5" class="st3" width="434.63" height="562.99" />
		<rect x="1770.37" y="745.18" class="st3" width="410.05" height="358.31" />
		<rect x="1473.15" y="873.07" class="st3" width="410.05" height="358.31" />
		<rect y="960.9" class="st3" width="2003.93" height="119.1" />
	</g>
</svg>
