<?xml version="1.0" encoding="UTF-8"?>
<svg id="Lager_2" data-name="Lager 2" xmlns="http://www.w3.org/2000/svg" viewBox="0 0 2978.7 1693.08" width="2000" height="1080">
	<defs>
		<style>
			.cls-1 {
			font-size: 175px;
			}

			.cls-1, .cls-2 {
			font-family: LucidaConsole, 'Lucida Console';
			}

			.cls-1, .cls-2, .cls-3 {
			fill: #007533;
			}

			.cls-4 {
			letter-spacing: -.36em;
			}

			.cls-2 {
			font-size: 150px;
			}

			.cls-5 {
			letter-spacing: -.37em;
			}
		</style>
	</defs>
	<g id="eyes">
		<text class="cls-1" transform="translate(276.74 142.27)">
			<tspan x="0" y="0">
				Help Froxy find his way
			</tspan>
			<tspan x="210.89" y="210">
				to the correct page
			</tspan>
		</text>
		<text class="cls-2" transform="translate(747.41 893.21)">
			<tspan x="0" y="0">
				jump
			</tspan>
			<tspan x="0" y="360">
				move
			</tspan>
			<tspan class="cls-5" x="361.52" y="360">
			</tspan>
			<tspan class="cls-4" x="396" y="360">
			</tspan>
			<tspan class="cls-4">
				<tspan x="0" y="540" xml:space="preserve">
				</tspan>
			</tspan>
			<tspan x="0" y="720">
				enter
			</tspan>
		</text>
		<g>
			<polygon class="cls-3" points="1782.42 1124.17 1714.8 1191.78 1782.42 1259.4 1782.42 1220.1 1878.87 1220.1 1878.87 1163.47 1782.42 1163.47 1782.42 1124.17" />
			<polygon class="cls-3" points="2154.34 1163.47 2057.89 1163.47 2057.89 1220.1 2154.34 1220.1 2154.34 1259.4 2221.96 1191.78 2154.34 1124.17 2154.34 1163.47" />
			<polygon class="cls-3" points="1968.38 1464.64 1900.77 1532.26 1940.06 1532.26 1940.06 1628.71 1996.7 1628.71 1996.7 1532.26 2036 1532.26 1968.38 1464.64" />
			<polygon class="cls-3" points="2205.53 819.05 2205.53 866.54 1731.09 866.54 1731.09 819.05 1705.34 819.05 1705.34 892.3 1705.48 892.3 1731.09 892.3 2205.53 892.3 2231.29 892.3 2231.29 866.54 2231.29 819.05 2205.53 819.05" />
		</g>
	</g>
</svg>
