<?xml version="1.0" encoding="UTF-8"?>
<svg id="Lager_2" data-name="Lager 2" xmlns="http://www.w3.org/2000/svg" viewBox="0 0 343.3 458.05" width="343.3" height="458.05">
  <defs>
    <style>
      .cls-1 {
        fill: #684526;
      }

      .cls-2 {
        fill: #231204;
      }

      .cls-3 {
        fill: #a47e55;
        stroke: #684526;
        stroke-miterlimit: 10;
        stroke-width: 7px;
      }
    </style>
  </defs>
  <g id="Lager_1-2" data-name="Lager 1">
    <path class="cls-2" d="m343.3,168.54v286.01H1.96V168.54c0-41.42,15.13-79.35,40.22-108.69,1.68-1.96,3.39-3.87,5.16-5.74,15.6-16.65,34.56-30.19,55.82-39.55,1.7-.75,3.42-1.48,5.16-2.18C128.16,4.4,149.88,0,172.63,0s42.47,4,61.56,11.3c1.73.65,3.44,1.34,5.16,2.06,21.32,8.95,40.41,22.06,56.23,38.29,1.76,1.8,3.49,3.65,5.16,5.52,26.49,29.7,42.56,68.68,42.56,111.37Z"/>
    <path class="cls-3" d="m334.5,173.71v280.84H3.5V173.71c0-40.67,14.67-77.92,39-106.73,1.63-1.92,3.29-3.8,5-5.64,15.13-16.35,33.51-29.64,54.13-38.84,1.65-.74,3.32-1.45,5-2.14,19.25-7.83,40.31-12.15,62.37-12.15s41.18,3.93,59.7,11.1c1.68.64,3.34,1.32,5,2.02,20.67,8.79,39.19,21.66,54.53,37.6,1.71,1.77,3.38,3.58,5,5.42,25.69,29.16,41.27,67.44,41.27,109.36Z"/>
    <path class="cls-1" d="m47.5,58.34v393.22h-5V63.98c1.63-1.92,3.29-3.8,5-5.64Z"/>
    <path class="cls-1" d="m106.63,17.36v434.2h-5V19.5c1.65-.74,3.32-1.45,5-2.14Z"/>
    <rect class="cls-1" x="164" y="5.82" width="5" height="445.74"/>
    <path class="cls-1" d="m293.23,61.35v390.21h-5V55.93c1.71,1.77,3.38,3.58,5,5.42Z"/>
    <circle class="cls-1" cx="290.73" cy="274.81" r="24.29"/>
    <path class="cls-1" d="m226.93,17.02v437.53s5,0,5,0V23.3c-1.63-2.14-3.29-4.23-5-6.28Z"/>
  </g>
</svg>
