<?xml version="1.0" encoding="UTF-8"?>
<svg id="Lager_2" data-name="Lager 2" xmlns="http://www.w3.org/2000/svg" viewBox="0 0 1294.88 684.72" width="2000" height="1080">
  <defs>
    <style>
      .cls-1 {
        fill: #fff;
      }

      .cls-2 {
        fill: #003824;
      }
    </style>
  </defs>
  <g id="Lager_4" data-name="Lager 4">
    <path class="cls-2" d="m359.47,336.59c0-60.05-35.52-111.36-85.66-131.97-20.25-40.92-60.92-68.87-107.8-68.87-58.78,0-107.8,43.93-119.04,102.27C19.68,247.64,0,274.73,0,306.67c0,10.19,2.01,19.88,5.62,28.67-3.65,12.86-5.62,26.48-5.62,40.58,0,78.22,60.28,141.64,134.63,141.64,2.77,0,5.52-.1,8.25-.27v167.44h23.12v-171.04c23.61-5.93,44.81-18.4,61.77-35.49,73-1.65,131.7-64.41,131.7-141.6Z"/>
    <path class="cls-2" d="m985.66,250.5c0-74.89-46.61-138.9-112.4-164.6C846.69,34.86,793.32,0,731.8,0c-77.12,0-141.44,54.77-156.19,127.54-35.82,11.98-61.63,45.79-61.63,85.64,0,12.71,2.63,24.8,7.37,35.77-4.79,16.03-7.37,33.02-7.37,50.61,0,97.57,79.09,176.66,176.66,176.66,3.64,0,7.24-.12,10.83-.34v208.84h30.34v-213.34c30.98-7.4,58.8-22.95,81.05-44.27,95.79-2.05,172.8-80.33,172.8-176.61Z"/>
    <path class="cls-2" d="m1294.88,405.77c0-48.11-31.69-89.23-76.42-105.74-18.06-32.79-54.35-55.18-96.18-55.18-52.44,0-96.17,35.19-106.2,81.93-24.35,7.7-41.91,29.42-41.91,55.02,0,8.16,1.79,15.93,5.01,22.98-3.25,10.3-5.01,21.21-5.01,32.51,0,62.68,53.78,113.49,120.12,113.49,2.47,0,4.93-.08,7.36-.22v134.17h20.63v-137.05c21.07-4.75,39.98-14.74,55.11-28.44,65.13-1.32,117.5-51.61,117.5-113.46Z"/>
    <circle class="cls-1" cx="605.91" cy="206.21" r="43.81"/>
    <circle class="cls-1" cx="722.98" cy="206.21" r="43.81"/>
    <circle cx="737.03" cy="208.55" r="14.05"/>
    <circle cx="605.91" cy="194.5" r="14.05"/>
  </g>
</svg>
