<?xml version="1.0" encoding="UTF-8"?>
<svg id="Lager_2" data-name="Lager 2" xmlns="http://www.w3.org/2000/svg" viewBox="0 -100 2003.93 300" width="2003.93" height="200">
  <defs>
    <style>
      .cls-1 {
        fill: #400f54;
      }
    </style>
  </defs>
  <g id="_3" data-name="3">
    <polygon class="cls-1" points="1859.93 .43 1859.93 174.5 1770.37 174.5 1770.37 283.27 1553.78 283.27 1553.78 154.53 1178.78 154.53 1178.78 69.86 729.22 69.86 729.22 174.5 391.83 174.5 391.83 174.5 391.83 101.08 177.59 101.08 177.59 101.08 177.59 0 0 0 0 357.97 0 459.27 177.59 459.27 177.59 459.27 325.68 459.27 391.83 459.27 775.24 459.27 1104.22 459.27 1473.15 459.27 1553.78 459.27 1770.37 459.27 1859.93 459.27 1883.2 459.27 2003.93 459.27 2003.93 357.97 2003.93 174.5 2003.93 .43 1859.93 .43"/>
  </g>
</svg>
