<?xml version="1.0" encoding="UTF-8"?>
<svg id="Lager_2" data-name="Lager 2" xmlns="http://www.w3.org/2000/svg" viewBox="0 0 275.12 250.83" width="275.12" height="250.83">
  <defs>
    <style>
      .cls-1 {
        fill: #ff87b5;
      }

      .cls-2 {
        fill: #ffc200;
      }

      .cls-3 {
        fill: #007533;
      }
    </style>
  </defs>
  <g id="eyes">
    <ellipse class="cls-3" cx="137.56" cy="136.68" rx="137.56" ry="114.15"/>
    <path class="cls-2" d="m129.79,79.89c0,2.91-.29,5.75-.85,8.49-3.93,19.53-21.2,34.24-41.89,34.24s-37.95-14.71-41.88-34.24c-.56-2.74-.85-5.58-.85-8.49,0-23.6,19.13-42.73,42.73-42.73s42.74,19.13,42.74,42.73Z"/>
    <path class="cls-2" d="m236.16,79.89c0,2.91-.29,5.75-.85,8.49-3.93,19.53-21.2,34.24-41.89,34.24s-37.95-14.71-41.88-34.24c-.56-2.74-.85-5.58-.85-8.49,0-23.6,19.13-42.73,42.73-42.73s42.74,19.13,42.74,42.73Z"/>
    <path class="cls-1" d="m105.35,161.44c0-4.72,3.46-9.01,9.13-12.24,6.38,3.63,15.56,5.9,25.75,5.9s19.38-2.27,25.75-5.9c5.67,3.23,9.13,7.52,9.13,12.24,0,10.02-15.62,18.13-34.89,18.13s-34.89-8.12-34.89-18.13Z"/>
    <path d="m119.84,32.78c0,2.06-.19,4.08-.56,6.04-2.83-15.22-16.19-26.74-32.22-26.74s-29.39,11.52-32.22,26.74c-.37-1.96-.56-3.98-.56-6.04C54.27,14.68,68.95,0,87.05,0s32.78,14.68,32.78,32.78Z"/>
    <path d="m226.2,32.78c0,2.06-.19,4.08-.56,6.04-2.83-15.22-16.19-26.74-32.22-26.74s-29.39,11.52-32.22,26.74c-.37-1.96-.56-3.98-.56-6.04,0-18.1,14.68-32.78,32.78-32.78s32.78,14.68,32.78,32.78Z"/>
  </g>
</svg>
