<?xml version="1.0" encoding="UTF-8"?>
<svg id="Lager_2" data-name="Lager 2" xmlns="http://www.w3.org/2000/svg" viewBox="0 0 275.12 248.66" width="275.12" height="250.83">
  <defs>
    <style>
      .cls-1 {
        fill: #ff87b5;
      }

      .cls-2 {
        fill: #ffc200;
      }

      .cls-3 {
        fill: #007533;
      }

      .cls-4 {
        fill: #fff;
        stroke: #fff;
        stroke-miterlimit: 10;
      }
    </style>
  </defs>
  <g id="Lager_4" data-name="Lager 4">
    <ellipse class="cls-3" cx="137.56" cy="149.82" rx="137.56" ry="98.84"/>
    <path class="cls-2" d="m164.22,79.89c0,2.91-.29,5.75-.85,8.49-3.93,19.53-21.2,34.24-41.89,34.24s-37.95-14.71-41.88-34.24c-.56-2.74-.85-5.58-.85-8.49,0-23.6,19.13-42.73,42.73-42.73s42.74,19.13,42.74,42.73Z"/>
    <path class="cls-4" d="m163.37,88.38c-3.93,19.53-21.2,34.24-41.89,34.24s-37.95-14.71-41.88-34.24c3.93-19.54,21.18-34.25,41.88-34.25s37.96,14.71,41.89,34.25Z"/>
    <circle cx="135.83" cy="87.21" r="14.34"/>
    <path class="cls-2" d="m270.59,79.89c0,2.91-.29,5.75-.85,8.49-3.93,19.53-21.2,34.24-41.89,34.24s-37.95-14.71-41.88-34.24c-.56-2.74-.85-5.58-.85-8.49,0-23.6,19.13-42.73,42.73-42.73s42.74,19.13,42.74,42.73Z"/>
    <path class="cls-4" d="m269.74,88.38c-3.93,19.53-21.2,34.24-41.89,34.24s-37.95-14.71-41.88-34.24c3.93-19.54,21.18-34.25,41.88-34.25s37.96,14.71,41.89,34.25Z"/>
    <circle cx="242.2" cy="87.21" r="14.34"/>
    <path d="m154.27,32.78c0,2.06-.19,4.08-.56,6.04-2.83-15.22-16.19-26.74-32.22-26.74s-29.39,11.52-32.22,26.74c-.37-1.96-.56-3.98-.56-6.04C88.71,14.68,103.38,0,121.48,0s32.78,14.68,32.78,32.78Z"/>
    <path d="m260.64,32.78c0,2.06-.19,4.08-.56,6.04-2.83-15.22-16.19-26.74-32.22-26.74s-29.39,11.52-32.22,26.74c-.37-1.96-.56-3.98-.56-6.04,0-18.1,14.68-32.78,32.78-32.78s32.78,14.68,32.78,32.78Z"/>
    <ellipse class="cls-1" cx="180.53" cy="142.74" rx="29.89" ry="10.67"/>
  </g>
</svg>
